<svg width="21" height="28" viewBox="0 0 21 28" fill="none" xmlns="http://www.w3.org/2000/svg">
<path d="M3.20007 1.08373L5.41379 0.416302C6.14439 0.196378 6.93004 0.249738 7.6242 0.566429C8.31835 0.883119 8.8736 1.44151 9.18636 2.13744L10.7384 5.58887C11.0077 6.18764 11.0828 6.85574 10.9531 7.49936C10.8233 8.14298 10.4952 8.72981 10.0149 9.17744L7.65265 11.3786C7.33607 11.6792 7.57607 12.8506 8.73264 14.8552C9.89036 16.8609 10.7852 17.654 11.1978 17.5306L14.2926 16.5843C14.92 16.3924 15.5916 16.4016 16.2134 16.6107C16.8353 16.8197 17.3761 17.2181 17.7601 17.75L19.9658 20.8072C20.4113 21.4245 20.6176 22.1826 20.5463 22.9405C20.4751 23.6985 20.1311 24.4048 19.5784 24.9283L17.8732 26.5432C17.3228 27.0644 16.6439 27.4304 15.9058 27.6037C15.1678 27.7769 14.397 27.7513 13.6721 27.5294C10.0995 26.4357 6.79093 23.19 3.70179 17.838C0.605787 12.478 -0.563355 7.95687 0.251502 4.26316C0.41585 3.51888 0.775719 2.83189 1.29401 2.27302C1.8123 1.71415 2.47027 1.30361 3.20007 1.08373Z" fill="#643600"/>
</svg>
