<svg width="256" height="256" viewBox="0 0 256 256" fill="none" xmlns="http://www.w3.org/2000/svg">
<path opacity="0.2" d="M192.281 104.334L118.128 178.3C117.27 179.156 116.251 179.835 115.13 180.298C114.009 180.762 112.807 181 111.594 181C110.38 181 109.179 180.762 108.058 180.298C106.936 179.835 105.918 179.156 105.06 178.3L63.7012 136.824C61.9715 135.096 61 132.753 61 130.311C61 127.869 61.9715 125.527 63.7012 123.799L77.5605 109.974C79.2874 108.251 81.6278 107.28 84.0702 107.273C86.5126 107.267 88.8582 108.225 90.5941 109.939L111.753 130.257L111.816 130.32L165.365 77.6859C167.097 75.9658 169.441 75 171.885 75C174.329 75 176.673 75.9658 178.405 77.6859L192.264 91.2578C193.13 92.1133 193.817 93.131 194.286 94.2525C194.756 95.374 194.998 96.5771 195 97.7924C195.002 99.0078 194.762 100.211 194.296 101.334C193.829 102.457 193.145 103.476 192.281 104.334Z" fill="#008000"/>
</svg>
