<svg width="448" height="448" viewBox="0 0 448 448" fill="none" xmlns="http://www.w3.org/2000/svg">
<path fill-rule="evenodd" clip-rule="evenodd" d="M52.7942 52.6799L395.099 394.999V422.495C395.099 436.347 383.707 447.679 369.783 447.679H25.3167C11.3923 447.679 0 436.347 0 422.495V77.8632C0 64.0109 11.3923 52.6785 25.3167 52.6785L52.7942 52.6799Z" fill="#D1D1D1"/>
<path fill-rule="evenodd" clip-rule="evenodd" d="M422.577 0C436.501 0 447.893 11.3324 447.893 25.1847V369.816C447.893 383.668 436.501 395.001 422.577 395.001H78.1106C64.1862 395.001 52.7939 383.668 52.7939 369.816V25.1847C52.7939 11.3324 64.1862 0 78.1106 0H422.577Z" fill="#00E9FF"/>
<path d="M310.201 174.551C341.927 174.551 367.647 148.832 367.647 117.105C367.647 85.3785 341.927 59.6591 310.201 59.6591C278.474 59.6591 252.755 85.3785 252.755 117.105C252.755 148.832 278.474 174.551 310.201 174.551Z" fill="#FFE600"/>
<path fill-rule="evenodd" clip-rule="evenodd" d="M140.053 185.846L52.7945 336.982L52.7942 369.816C52.7942 383.668 64.1865 395.001 78.1109 395.001L291.238 395.001L259.214 339.53L170.49 185.846C163.743 174.159 146.8 174.159 140.053 185.846Z" fill="#3DCE20"/>
<path fill-rule="evenodd" clip-rule="evenodd" d="M288.648 288.545L259.213 339.529L291.237 395L395.098 395H422.577C432.121 395 440.476 389.675 444.788 381.863L354.998 226.342C348.25 214.656 331.308 214.656 324.561 226.342L288.648 288.545Z" fill="#41AB2D"/>
</svg>
