<svg width="396" height="395" viewBox="0 0 396 395" fill="none" xmlns="http://www.w3.org/2000/svg">
<path fill-rule="evenodd" clip-rule="evenodd" d="M370.577 0C384.501 0 395.893 11.3324 395.893 25.1847V369.816C395.893 383.668 384.501 395.001 370.577 395.001H26.1106C12.1863 395.001 0.793945 383.668 0.793945 369.816V25.1847C0.793945 11.3324 12.1863 0 26.1106 0H370.577Z" fill="#999999"/>
<path d="M112.368 112.767C115.169 109.97 118.966 108.398 122.924 108.398C126.883 108.398 130.679 109.97 133.48 112.767L197.61 176.898L261.741 112.767C263.567 110.801 265.889 109.363 268.463 108.606C271.038 107.849 273.768 107.8 276.368 108.465C278.967 109.13 281.34 110.483 283.234 112.383C285.129 114.283 286.477 116.658 287.134 119.26C287.8 121.856 287.754 124.584 287 127.157C286.247 129.729 284.814 132.051 282.852 133.878L218.722 198.009L282.852 262.14C284.819 263.965 286.256 266.288 287.013 268.862C287.77 271.436 287.819 274.167 287.154 276.766C286.49 279.366 285.136 281.738 283.236 283.633C281.337 285.528 278.961 286.875 276.36 287.533C273.763 288.198 271.035 288.152 268.463 287.399C265.89 286.645 263.568 285.212 261.741 283.251L197.61 219.12L133.48 283.251C130.646 285.888 126.901 287.324 123.031 287.257C119.161 287.19 115.468 285.626 112.727 282.892C109.994 280.152 108.429 276.458 108.362 272.588C108.295 268.718 109.731 264.973 112.368 262.14L176.499 198.009L112.368 133.878C109.571 131.077 108 127.281 108 123.323C108 119.364 109.571 115.568 112.368 112.767Z" fill="black"/>
</svg>
