<svg width="363" height="50" viewBox="0 0 363 50" fill="none" xmlns="http://www.w3.org/2000/svg">
<rect width="363" height="50" fill="white"/>
<g clip-path="url(#clip0_23_148)">
<path d="M30.6064 40.5341C30.2168 40.3672 25.0012 33.3529 25.0012 33.3529C25.0008 33.3529 25.0005 33.3529 25 33.3529L24.3647 39.1765L25 45C25.0459 44.9993 25.1059 45.0003 25.2388 44.9937C25.2909 44.9912 25.4803 44.9761 25.5042 44.9735C25.4957 44.9744 25.487 44.9747 25.4785 44.9756C27.6611 44.7583 29.5929 43.067 30.6064 40.5341Z" fill="#FBC000"/>
<path d="M27.246 38.2306C29.0065 39.9908 31.4021 41.2326 33.8236 41.2324C35.3454 41.2324 36.7271 40.7288 37.7278 39.7279C39.408 38.0478 39.6866 35.2956 38.5346 32.6062C38.1411 32.7636 29.069 31.8746 29.069 31.8746C29.1105 31.84 25.0469 33.3529 25 33.3529C25.2276 35.1794 25.9884 36.8007 27.246 38.2306Z" fill="#FF9201"/>
<path d="M29.0691 31.8747L29.3163 32.0187C30.8146 32.8916 32.6173 33.3529 34.5294 33.3529C35.477 33.3529 36.4077 33.2375 37.2957 33.0099C40.7077 32.1354 43 29.7202 43 27C43 24.624 41.251 22.4809 38.5346 21.3937C38.3678 21.7834 31.3274 27.5687 31.3274 27.5687L29.0691 31.8747Z" fill="#FBC000"/>
<path d="M37.7278 14.2721C36.0478 12.592 33.2955 12.3133 30.6061 13.4654C30.7636 13.8589 29.8747 22.9309 29.8747 22.9309C29.8555 22.908 31.3439 27.3814 31.3272 27.5689L31.6011 27.4967C34.2594 26.7954 36.5909 24.8411 37.944 22.5552C39.7382 19.5243 39.6513 16.1956 37.7278 14.2721Z" fill="#FF9201"/>
<path d="M25 20.6472L25.7059 13.2353L25 9C22.624 9 20.4809 10.7491 19.3938 13.4654L25 20.6472Z" fill="#FF8C00"/>
<path d="M25 20.6471H25.0011C25.1383 20.6471 24.853 18.5905 23.7276 16.9849C21.4706 13.7647 19.7927 13.6368 19.4079 13.4713C16.7139 12.3121 13.955 12.5891 12.2721 14.2721C10.592 15.9522 10.3133 18.7044 11.4654 21.3937C11.8589 21.2363 20.9308 22.1253 20.9308 22.1253L25 20.6471Z" fill="#FBC000"/>
<path d="M29.8748 22.9309L30.0187 22.6838C31.4026 20.3082 31.6694 17.2775 31.0099 14.7043C30.1496 11.3477 27.7979 9.07638 25.1319 9.00353C25.088 9.00226 25.0443 9 25 9V20.6471H25.0011L29.8748 22.9309Z" fill="#FBC000"/>
<path d="M18.6726 26.4312L20.9309 22.1253L20.6838 21.9813C18.3171 20.6025 15.2889 20.3277 12.7043 20.9901C9.29235 21.8646 7 24.2797 7 27C7 29.376 8.74904 31.5191 11.4654 32.6062L18.6726 26.4312Z" fill="#FF8C00"/>
<path d="M20.1253 31.0692C20.1445 31.0921 18.6561 26.6187 18.6728 26.4312L18.3989 26.5034C15.7383 27.2053 13.407 29.1623 12.056 31.4448C10.2618 34.4758 10.3486 37.8045 12.2721 39.728C13.2731 40.7289 14.6543 41.2325 16.1764 41.2325C17.2089 41.2325 18.3064 40.9998 19.3935 40.5341C19.2362 40.1407 20.1253 31.0692 20.1253 31.0692Z" fill="#FBC000"/>
<path d="M25 33.3529V45C22.2798 45 19.8645 42.7076 18.9901 39.2958C18.3289 36.7162 18.6002 33.6868 19.9813 31.3163L20.1252 31.0692L25 33.3529Z" fill="#FF8C00"/>
<path d="M18.6471 27C18.6471 30.5086 21.4914 33.3529 25 33.3529L25.7059 27L25 20.6471C21.4914 20.6471 18.6471 23.4914 18.6471 27Z" fill="#9D6B5D"/>
<path d="M25 20.6471V33.3529C28.5087 33.3529 31.3529 30.5086 31.3529 27C31.3529 23.4914 28.5087 20.6471 25 20.6471Z" fill="#895050"/>
<path d="M20.7646 27C20.7646 29.3391 22.6609 31.2353 24.9999 31.2353L25.7058 27L24.9999 22.7647C22.6609 22.7647 20.7646 24.6609 20.7646 27Z" fill="#895050"/>
<path d="M25 22.7647V31.2353C27.3391 31.2353 29.2353 29.3391 29.2353 27C29.2353 24.6609 27.3391 22.7647 25 22.7647Z" fill="#5A344B"/>
</g>
<path d="M63.558 11.61C64.878 11.61 66.0733 11.8593 67.144 12.358C68.2147 12.8567 69.0653 13.5533 69.696 14.448C70.3413 15.328 70.6933 16.3327 70.752 17.462H66.616C66.4987 16.67 66.154 16.054 65.582 15.614C65.01 15.174 64.2473 14.954 63.294 14.954C62.3847 14.954 61.6733 15.1227 61.16 15.46C60.6467 15.7827 60.39 16.2227 60.39 16.78C60.39 17.22 60.5513 17.5793 60.874 17.858C61.1967 18.1367 61.688 18.386 62.348 18.606C63.0227 18.8113 63.998 19.046 65.274 19.31C67.254 19.7207 68.6693 20.4027 69.52 21.356C70.3853 22.2947 70.818 23.4753 70.818 24.898C70.818 26.0127 70.4953 26.988 69.85 27.824C69.2193 28.66 68.354 29.298 67.254 29.738C66.154 30.1927 64.9293 30.42 63.58 30.42C62.1133 30.42 60.7933 30.1633 59.62 29.65C58.4613 29.1513 57.5373 28.4327 56.848 27.494C56.1733 26.5553 55.8067 25.4553 55.748 24.194H59.862C59.9793 25.0593 60.39 25.756 61.094 26.284C61.8127 26.7973 62.7367 27.054 63.866 27.054C64.6873 27.054 65.362 26.8707 65.89 26.504C66.4327 26.1373 66.704 25.6607 66.704 25.074C66.704 24.6047 66.5573 24.216 66.264 23.908C65.9853 23.6 65.5307 23.336 64.9 23.116C64.284 22.896 63.4187 22.6833 62.304 22.478C60.2947 22.0967 58.7913 21.4587 57.794 20.564C56.7967 19.6693 56.298 18.408 56.298 16.78C56.298 15.724 56.6133 14.8073 57.244 14.03C57.8893 13.2527 58.762 12.6587 59.862 12.248C60.962 11.8227 62.194 11.61 63.558 11.61ZM72.9499 12.05H76.9539V22.038C76.9539 23.4753 77.3279 24.634 78.0759 25.514C78.8386 26.3793 79.8653 26.812 81.1559 26.812C82.4466 26.812 83.4659 26.3793 84.2139 25.514C84.9766 24.634 85.3579 23.4753 85.3579 22.038V12.05H89.3619V22.038C89.3619 23.71 89.0173 25.184 88.3279 26.46C87.6533 27.7213 86.6926 28.6967 85.4459 29.386C84.2139 30.0753 82.7839 30.42 81.1559 30.42C79.5279 30.42 78.0906 30.0753 76.8439 29.386C75.6119 28.6967 74.6513 27.7213 73.9619 26.46C73.2873 25.184 72.9499 23.71 72.9499 22.038V12.05ZM92.3125 12.05H95.6565L104.611 22.83V11.83H108.615V29.76H105.271L96.3165 18.98V29.98H92.3125V12.05Z" fill="#895050"/>
<path d="M117.943 12.05H131.099V15.57H121.947V19.64H130.087V23.116H121.947V29.98H117.943V12.05ZM137.309 12.05V26.438H146.263V29.98H133.305V12.05H137.309ZM156.802 30.42C154.969 30.42 153.311 30.0093 151.83 29.188C150.363 28.3813 149.212 27.2667 148.376 25.844C147.54 24.4067 147.122 22.7933 147.122 21.004C147.122 19.2147 147.54 17.6087 148.376 16.186C149.212 14.7487 150.363 13.6267 151.83 12.82C153.311 11.9987 154.969 11.588 156.802 11.588C158.635 11.588 160.285 11.9987 161.752 12.82C163.233 13.6267 164.392 14.7487 165.228 16.186C166.064 17.6087 166.482 19.2147 166.482 21.004C166.482 22.7933 166.064 24.4067 165.228 25.844C164.392 27.2667 163.233 28.3813 161.752 29.188C160.285 30.0093 158.635 30.42 156.802 30.42ZM156.802 26.812C157.873 26.812 158.841 26.5627 159.706 26.064C160.571 25.5653 161.246 24.876 161.73 23.996C162.229 23.1013 162.478 22.104 162.478 21.004C162.478 19.8893 162.229 18.892 161.73 18.012C161.246 17.132 160.571 16.4427 159.706 15.944C158.841 15.4453 157.873 15.196 156.802 15.196C155.731 15.196 154.763 15.4453 153.898 15.944C153.033 16.4427 152.351 17.132 151.852 18.012C151.368 18.892 151.126 19.8893 151.126 21.004C151.126 22.104 151.368 23.1013 151.852 23.996C152.351 24.876 153.033 25.5653 153.898 26.064C154.763 26.5627 155.731 26.812 156.802 26.812ZM191.93 12.05L186.76 29.98H182.712L179.5 18.738L176.288 29.98H172.24L167.07 12.05H171.36L174.44 23.776L177.52 12.05H181.678L184.736 23.732L187.838 12.05H191.93ZM193.826 12.05H207.158V15.526H197.83V19.178H206.388V22.654H197.83V26.504H207.356V29.98H193.826V12.05ZM220.717 29.98L217.241 24.326H214.051V29.98H210.047V12.05H217.263C218.759 12.05 220.05 12.3067 221.135 12.82C222.22 13.3187 223.049 14.03 223.621 14.954C224.193 15.878 224.479 16.956 224.479 18.188C224.479 19.42 224.193 20.498 223.621 21.422C223.064 22.3313 222.257 23.0353 221.201 23.534L225.359 29.98H220.717ZM214.051 20.784H217.087C218.158 20.784 218.986 20.564 219.573 20.124C220.174 19.6693 220.475 19.024 220.475 18.188C220.475 17.352 220.174 16.714 219.573 16.274C218.986 15.8193 218.158 15.592 217.087 15.592H214.051V20.784Z" fill="#FF8C00"/>
<path d="M63.558 11.61C64.878 11.61 66.0733 11.8593 67.144 12.358C68.2147 12.8567 69.0653 13.5533 69.696 14.448C70.3413 15.328 70.6933 16.3327 70.752 17.462H66.616C66.4987 16.67 66.154 16.054 65.582 15.614C65.01 15.174 64.2473 14.954 63.294 14.954C62.3847 14.954 61.6733 15.1227 61.16 15.46C60.6467 15.7827 60.39 16.2227 60.39 16.78C60.39 17.22 60.5513 17.5793 60.874 17.858C61.1967 18.1367 61.688 18.386 62.348 18.606C63.0227 18.8113 63.998 19.046 65.274 19.31C67.254 19.7207 68.6693 20.4027 69.52 21.356C70.3853 22.2947 70.818 23.4753 70.818 24.898C70.818 26.0127 70.4953 26.988 69.85 27.824C69.2193 28.66 68.354 29.298 67.254 29.738C66.154 30.1927 64.9293 30.42 63.58 30.42C62.1133 30.42 60.7933 30.1633 59.62 29.65C58.4613 29.1513 57.5373 28.4327 56.848 27.494C56.1733 26.5553 55.8067 25.4553 55.748 24.194H59.862C59.9793 25.0593 60.39 25.756 61.094 26.284C61.8127 26.7973 62.7367 27.054 63.866 27.054C64.6873 27.054 65.362 26.8707 65.89 26.504C66.4327 26.1373 66.704 25.6607 66.704 25.074C66.704 24.6047 66.5573 24.216 66.264 23.908C65.9853 23.6 65.5307 23.336 64.9 23.116C64.284 22.896 63.4187 22.6833 62.304 22.478C60.2947 22.0967 58.7913 21.4587 57.794 20.564C56.7967 19.6693 56.298 18.408 56.298 16.78C56.298 15.724 56.6133 14.8073 57.244 14.03C57.8893 13.2527 58.762 12.6587 59.862 12.248C60.962 11.8227 62.194 11.61 63.558 11.61ZM72.9499 12.05H76.9539V22.038C76.9539 23.4753 77.3279 24.634 78.0759 25.514C78.8386 26.3793 79.8653 26.812 81.1559 26.812C82.4466 26.812 83.4659 26.3793 84.2139 25.514C84.9766 24.634 85.3579 23.4753 85.3579 22.038V12.05H89.3619V22.038C89.3619 23.71 89.0173 25.184 88.3279 26.46C87.6533 27.7213 86.6926 28.6967 85.4459 29.386C84.2139 30.0753 82.7839 30.42 81.1559 30.42C79.5279 30.42 78.0906 30.0753 76.8439 29.386C75.6119 28.6967 74.6513 27.7213 73.9619 26.46C73.2873 25.184 72.9499 23.71 72.9499 22.038V12.05ZM92.3125 12.05H95.6565L104.611 22.83V11.83H108.615V29.76H105.271L96.3165 18.98V29.98H92.3125V12.05Z" fill="#895050"/>
<path d="M117.943 12.05H131.099V15.57H121.947V19.64H130.087V23.116H121.947V29.98H117.943V12.05ZM137.309 12.05V26.438H146.263V29.98H133.305V12.05H137.309ZM156.802 30.42C154.969 30.42 153.311 30.0093 151.83 29.188C150.363 28.3813 149.212 27.2667 148.376 25.844C147.54 24.4067 147.122 22.7933 147.122 21.004C147.122 19.2147 147.54 17.6087 148.376 16.186C149.212 14.7487 150.363 13.6267 151.83 12.82C153.311 11.9987 154.969 11.588 156.802 11.588C158.635 11.588 160.285 11.9987 161.752 12.82C163.233 13.6267 164.392 14.7487 165.228 16.186C166.064 17.6087 166.482 19.2147 166.482 21.004C166.482 22.7933 166.064 24.4067 165.228 25.844C164.392 27.2667 163.233 28.3813 161.752 29.188C160.285 30.0093 158.635 30.42 156.802 30.42ZM156.802 26.812C157.873 26.812 158.841 26.5627 159.706 26.064C160.571 25.5653 161.246 24.876 161.73 23.996C162.229 23.1013 162.478 22.104 162.478 21.004C162.478 19.8893 162.229 18.892 161.73 18.012C161.246 17.132 160.571 16.4427 159.706 15.944C158.841 15.4453 157.873 15.196 156.802 15.196C155.731 15.196 154.763 15.4453 153.898 15.944C153.033 16.4427 152.351 17.132 151.852 18.012C151.368 18.892 151.126 19.8893 151.126 21.004C151.126 22.104 151.368 23.1013 151.852 23.996C152.351 24.876 153.033 25.5653 153.898 26.064C154.763 26.5627 155.731 26.812 156.802 26.812ZM191.93 12.05L186.76 29.98H182.712L179.5 18.738L176.288 29.98H172.24L167.07 12.05H171.36L174.44 23.776L177.52 12.05H181.678L184.736 23.732L187.838 12.05H191.93ZM193.826 12.05H207.158V15.526H197.83V19.178H206.388V22.654H197.83V26.504H207.356V29.98H193.826V12.05ZM220.717 29.98L217.241 24.326H214.051V29.98H210.047V12.05H217.263C218.759 12.05 220.05 12.3067 221.135 12.82C222.22 13.3187 223.049 14.03 223.621 14.954C224.193 15.878 224.479 16.956 224.479 18.188C224.479 19.42 224.193 20.498 223.621 21.422C223.064 22.3313 222.257 23.0353 221.201 23.534L225.359 29.98H220.717ZM214.051 20.784H217.087C218.158 20.784 218.986 20.564 219.573 20.124C220.174 19.6693 220.475 19.024 220.475 18.188C220.475 17.352 220.174 16.714 219.573 16.274C218.986 15.8193 218.158 15.592 217.087 15.592H214.051V20.784Z" fill="#FF8C00"/>
<path d="M262.125 33.342H256.886V13.75H262.125V33.342ZM245.137 13.781C246.852 13.781 248.361 14.1117 249.663 14.773C250.986 15.4343 252.009 16.3643 252.732 17.563C253.476 18.7617 253.848 20.1463 253.848 21.717C253.848 23.3083 253.476 24.7033 252.732 25.902C252.009 27.1007 250.986 28.0307 249.663 28.692C248.361 29.3327 246.852 29.653 245.137 29.653C243.422 29.653 241.903 29.3327 240.58 28.692C239.278 28.0307 238.255 27.1007 237.511 25.902C236.788 24.7033 236.426 23.3083 236.426 21.717C236.426 20.1463 236.788 18.7617 237.511 17.563C238.255 16.3643 239.278 15.4343 240.58 14.773C241.903 14.1117 243.422 13.781 245.137 13.781ZM245.137 18.152C244.104 18.152 243.256 18.4723 242.595 19.113C241.954 19.733 241.634 20.601 241.634 21.717C241.634 22.833 241.954 23.7113 242.595 24.352C243.256 24.972 244.104 25.282 245.137 25.282C246.17 25.282 247.007 24.972 247.648 24.352C248.309 23.7113 248.64 22.833 248.64 21.717C248.64 20.601 248.309 19.733 247.648 19.113C247.007 18.4723 246.17 18.152 245.137 18.152ZM244.083 35.512H262.497V40.224H238.751V30.955H244.083V35.512ZM291.975 32.04H267.826V14.37H291.665V18.958H273.003V21.035H291.231V25.375H273.003V27.452H291.975V32.04ZM293.122 34.489V39.294H266.338V34.489H293.122ZM324.12 28.506H321.02V40.224H315.781V13.75H321.02V23.422H324.12V28.506ZM307.69 34.272C308.95 34.272 310.201 34.1687 311.441 33.962C312.701 33.7347 313.735 33.435 314.541 33.063V37.713C313.755 38.1057 312.712 38.4157 311.41 38.643C310.128 38.8703 308.837 38.984 307.535 38.984H297.057V24.29H306.915V19.082H296.995V14.37H312.123V28.94H302.265V34.272H307.69ZM352.327 32.04H347.429V13.75H352.327V32.04ZM340.764 21.562H335.401V17.16H340.764V13.874H345.6V29.219H340.764V21.562ZM339.462 27.824C338.718 28.0927 337.726 28.3097 336.486 28.475C335.246 28.6197 334.027 28.692 332.828 28.692H326.442V13.905H331.402V24.383H333.293C334.368 24.383 335.463 24.3107 336.579 24.166C337.716 24.0213 338.677 23.825 339.462 23.577V27.824ZM351.8 40.565L339.958 36.473C338.429 37.6923 336.589 38.6223 334.44 39.263C332.311 39.9037 330.069 40.224 327.713 40.224V35.357C329.428 35.357 331.051 35.1193 332.58 34.644C334.13 34.148 335.422 33.466 336.455 32.598C337.509 31.73 338.181 30.7483 338.47 29.653L343.709 30.8C343.523 31.482 343.275 32.133 342.965 32.753L353.567 35.915L351.8 40.565Z" fill="#895050"/>
<path d="M62.3 36.36H56.51V35.49H58.9V34.41H59.91V35.49H62.3V36.36ZM65.48 38.83H64.3V43.04H63.31V34.5H64.3V37.88H65.48V38.83ZM59.9 41.65C61.1733 41.6367 62.0733 41.51 62.6 41.27V42.17C62.3333 42.29 61.9533 42.38 61.46 42.44C60.9733 42.5 60.4233 42.53 59.81 42.53H56.55V41.65H58.91V40.38C58.3033 40.3133 57.8233 40.13 57.47 39.83C57.1233 39.5233 56.95 39.13 56.95 38.65C56.95 38.1033 57.1733 37.6733 57.62 37.36C58.0667 37.04 58.6667 36.88 59.42 36.88C60.1733 36.88 60.7733 37.04 61.22 37.36C61.6667 37.6733 61.89 38.1033 61.89 38.65C61.89 39.13 61.7133 39.5233 61.36 39.83C61.0067 40.1367 60.52 40.3233 59.9 40.39V41.65ZM57.89 38.65C57.89 38.93 58.0233 39.16 58.29 39.34C58.5567 39.5133 58.9333 39.6 59.42 39.6C59.9067 39.6 60.2833 39.5133 60.55 39.34C60.8167 39.16 60.95 38.93 60.95 38.65C60.95 38.37 60.8167 38.14 60.55 37.96C60.2833 37.78 59.9067 37.69 59.42 37.69C58.9333 37.69 58.5567 37.78 58.29 37.96C58.0233 38.14 57.89 38.37 57.89 38.65ZM73.2191 39.86V34.5H74.2091V41.19H73.2191V40.66H70.6291V39.86H73.2191ZM69.2091 37.85C68.4491 37.85 67.8358 37.7033 67.3691 37.41C66.9091 37.1167 66.6791 36.7067 66.6791 36.18C66.6791 35.6533 66.9091 35.2467 67.3691 34.96C67.8358 34.6667 68.4491 34.52 69.2091 34.52C69.9691 34.52 70.5791 34.6667 71.0391 34.96C71.5058 35.2467 71.7391 35.6533 71.7391 36.18C71.7391 36.7067 71.5058 37.1167 71.0391 37.41C70.5791 37.7033 69.9691 37.85 69.2091 37.85ZM69.2091 35.3C68.7425 35.3 68.3658 35.3767 68.0791 35.53C67.7925 35.6767 67.6491 35.8933 67.6491 36.18C67.6491 36.4667 67.7925 36.6867 68.0791 36.84C68.3658 36.9933 68.7425 37.07 69.2091 37.07C69.6758 37.07 70.0525 36.9933 70.3391 36.84C70.6258 36.6867 70.7691 36.4667 70.7691 36.18C70.7691 35.8933 70.6258 35.6767 70.3391 35.53C70.0525 35.3767 69.6758 35.3 69.2091 35.3ZM68.5291 39.27H66.1691V38.45H69.6991C71.0325 38.45 71.9658 38.3367 72.4991 38.11V38.93C71.9925 39.1567 71.0491 39.27 69.6691 39.27H69.5191V40.8H68.5291V39.27ZM74.4291 42.09V42.93H66.9591V40.34H67.9491V42.09H74.4291ZM84.7183 38.91H83.5183V43.04H82.5283V34.5H83.5183V37.96H84.7183V38.91ZM79.4783 34.75C79.4649 36.1033 79.3516 37.2867 79.1383 38.3L81.8283 41.94L81.0283 42.51L78.8283 39.46C78.5216 40.4 78.1149 41.1367 77.6083 41.67C77.1016 42.1967 76.5183 42.4833 75.8583 42.53V41.53C76.4116 41.4433 76.8816 41.09 77.2683 40.47C77.6616 39.85 77.9583 39.04 78.1583 38.04C78.3583 37.04 78.4616 35.93 78.4683 34.71L79.4783 34.75ZM86.0274 35.88H92.3674V35.3H86.0274V34.6H93.3274V36.54H86.9874V37.11H93.4474V37.81H86.0274V35.88ZM85.4074 38.43H93.9374V39.15H85.4074V38.43ZM85.9974 41.02H92.3874V40.47H85.9774V39.77H93.3474V41.68H86.9574V42.24H93.4974V42.94H85.9974V41.02ZM103.649 39.21H102.709V34.55H103.649V36.11H105.099V34.5H106.039V39.49H105.099V37.02H103.649V39.21ZM100.129 37.37C99.6626 38.4233 98.896 39.0467 97.8293 39.24V38.34C98.476 38.16 98.946 37.7433 99.2393 37.09C99.5326 36.4367 99.6793 35.6067 99.6793 34.6L100.629 34.63C100.629 35.31 100.566 35.9167 100.439 36.45L102.469 38.34L101.819 38.99L100.129 37.37ZM102.379 39.66C103.506 39.66 104.419 39.7933 105.119 40.06C105.819 40.3267 106.169 40.7567 106.169 41.35C106.169 41.9433 105.819 42.3733 105.119 42.64C104.419 42.9067 103.506 43.04 102.379 43.04C101.253 43.04 100.339 42.9067 99.6393 42.64C98.9393 42.3733 98.5893 41.9433 98.5893 41.35C98.5893 40.7567 98.9393 40.3267 99.6393 40.06C100.339 39.7933 101.253 39.66 102.379 39.66ZM102.379 42.23C103.159 42.23 103.809 42.1567 104.329 42.01C104.856 41.87 105.119 41.65 105.119 41.35C105.119 41.05 104.856 40.83 104.329 40.69C103.809 40.5433 103.159 40.47 102.379 40.47C101.599 40.47 100.946 40.5433 100.419 40.69C99.8993 40.83 99.6393 41.05 99.6393 41.35C99.6393 41.65 99.8993 41.87 100.419 42.01C100.946 42.1567 101.599 42.23 102.379 42.23ZM116.378 37.34H115.178V39.6H114.188V34.5H115.178V36.39H116.378V37.34ZM112.588 35.72C112.588 36.92 112.152 37.8167 111.278 38.41C110.412 39.0033 109.208 39.3 107.668 39.3V38.42C108.908 38.4133 109.872 38.2 110.558 37.78C111.245 37.3533 111.588 36.72 111.588 35.88V35.57H107.668V34.71H112.588V35.72ZM107.958 40.07H115.178V43.04H114.178V40.93H107.958V40.07ZM120.528 35.85H122.798V36.73H117.258V35.85H119.518V34.48H120.528V35.85ZM125.998 38.91H124.798V43.04H123.808V34.5H124.798V37.96H125.998V38.91ZM120.028 37.41C120.488 37.41 120.898 37.52 121.258 37.74C121.618 37.9533 121.898 38.26 122.098 38.66C122.298 39.0533 122.398 39.5067 122.398 40.02C122.398 40.5333 122.298 40.99 122.098 41.39C121.898 41.7833 121.618 42.0867 121.258 42.3C120.898 42.52 120.488 42.63 120.028 42.63C119.568 42.63 119.158 42.52 118.798 42.3C118.438 42.0867 118.154 41.7833 117.948 41.39C117.748 40.99 117.648 40.5333 117.648 40.02C117.648 39.5067 117.748 39.0533 117.948 38.66C118.154 38.26 118.438 37.9533 118.798 37.74C119.158 37.52 119.568 37.41 120.028 37.41ZM120.028 41.77C120.294 41.77 120.534 41.7 120.748 41.56C120.961 41.42 121.128 41.2167 121.248 40.95C121.374 40.6833 121.438 40.3733 121.438 40.02C121.438 39.6667 121.374 39.3567 121.248 39.09C121.128 38.8233 120.961 38.62 120.748 38.48C120.534 38.34 120.294 38.27 120.028 38.27C119.614 38.27 119.274 38.43 119.008 38.75C118.741 39.0633 118.608 39.4867 118.608 40.02C118.608 40.5533 118.741 40.98 119.008 41.3C119.274 41.6133 119.614 41.77 120.028 41.77ZM127.297 34.5H128.297V36.93H134.687V37.81H127.297V34.5ZM126.687 38.75H135.217V39.63H126.687V38.75ZM127.277 40.39H128.287V42.06H134.777V42.94H127.277V40.39ZM142.029 43.01C141.455 43.01 140.945 42.8533 140.499 42.54C140.052 42.2267 139.702 41.7567 139.449 41.13C139.195 40.4967 139.069 39.7267 139.069 38.82C139.069 37.9133 139.195 37.1467 139.449 36.52C139.702 35.8867 140.052 35.4133 140.499 35.1C140.945 34.7867 141.455 34.63 142.029 34.63C142.602 34.63 143.109 34.7867 143.549 35.1C143.995 35.4133 144.345 35.8867 144.599 36.52C144.852 37.1467 144.979 37.9133 144.979 38.82C144.979 39.7267 144.852 40.4967 144.599 41.13C144.345 41.7567 143.995 42.2267 143.549 42.54C143.109 42.8533 142.602 43.01 142.029 43.01ZM142.029 42.08C142.395 42.08 142.725 41.9567 143.019 41.71C143.312 41.4633 143.542 41.0967 143.709 40.61C143.882 40.1233 143.969 39.5267 143.969 38.82C143.969 38.12 143.882 37.5267 143.709 37.04C143.542 36.5467 143.312 36.1767 143.019 35.93C142.725 35.6833 142.395 35.56 142.029 35.56C141.655 35.56 141.322 35.6833 141.029 35.93C140.735 36.1767 140.502 36.5467 140.329 37.04C140.162 37.5267 140.079 38.12 140.079 38.82C140.079 39.5267 140.162 40.1233 140.329 40.61C140.502 41.0967 140.735 41.4633 141.029 41.71C141.322 41.9567 141.655 42.08 142.029 42.08ZM147.942 38.43C147.562 38.43 147.222 38.3467 146.922 38.18C146.622 38.0133 146.386 37.7867 146.212 37.5C146.046 37.2067 145.962 36.88 145.962 36.52C145.962 36.16 146.046 35.8367 146.212 35.55C146.386 35.2567 146.622 35.0267 146.922 34.86C147.222 34.6933 147.562 34.61 147.942 34.61C148.322 34.61 148.662 34.6933 148.962 34.86C149.262 35.0267 149.496 35.2567 149.662 35.55C149.836 35.8367 149.922 36.16 149.922 36.52C149.922 36.88 149.836 37.2067 149.662 37.5C149.496 37.7867 149.262 38.0133 148.962 38.18C148.662 38.3467 148.322 38.43 147.942 38.43ZM152.522 34.82H153.502L148.212 42.83H147.232L152.522 34.82ZM147.942 37.59C148.262 37.59 148.522 37.49 148.722 37.29C148.922 37.09 149.022 36.8333 149.022 36.52C149.022 36.2067 148.922 35.9533 148.722 35.76C148.522 35.56 148.262 35.46 147.942 35.46C147.622 35.46 147.359 35.56 147.152 35.76C146.952 35.9533 146.852 36.2067 146.852 36.52C146.852 36.8333 146.952 37.09 147.152 37.29C147.359 37.49 147.622 37.59 147.942 37.59ZM152.792 43.03C152.412 43.03 152.072 42.9467 151.772 42.78C151.472 42.6133 151.236 42.3833 151.062 42.09C150.896 41.8033 150.812 41.48 150.812 41.12C150.812 40.76 150.896 40.4367 151.062 40.15C151.236 39.8567 151.472 39.6267 151.772 39.46C152.072 39.2933 152.412 39.21 152.792 39.21C153.166 39.21 153.502 39.2933 153.802 39.46C154.109 39.6267 154.346 39.8567 154.512 40.15C154.686 40.4367 154.772 40.76 154.772 41.12C154.772 41.48 154.686 41.8033 154.512 42.09C154.346 42.3833 154.109 42.6133 153.802 42.78C153.502 42.9467 153.166 43.03 152.792 43.03ZM152.792 42.19C153.106 42.19 153.362 42.09 153.562 41.89C153.769 41.69 153.872 41.4333 153.872 41.12C153.872 40.8067 153.769 40.55 153.562 40.35C153.362 40.15 153.106 40.05 152.792 40.05C152.472 40.05 152.209 40.15 152.002 40.35C151.802 40.55 151.702 40.8067 151.702 41.12C151.702 41.4333 151.802 41.69 152.002 41.89C152.209 42.09 152.472 42.19 152.792 42.19ZM161.851 34.63C162.431 34.63 162.954 34.7333 163.421 34.94C163.888 35.14 164.261 35.4233 164.541 35.79C164.821 36.1567 164.978 36.57 165.011 37.03H163.931C163.871 36.59 163.651 36.23 163.271 35.95C162.898 35.67 162.408 35.53 161.801 35.53C161.188 35.53 160.704 35.6467 160.351 35.88C160.004 36.1067 159.831 36.4033 159.831 36.77C159.831 37.0433 159.914 37.2733 160.081 37.46C160.248 37.64 160.504 37.7967 160.851 37.93C161.204 38.0633 161.681 38.1933 162.281 38.32C163.248 38.5267 163.948 38.8233 164.381 39.21C164.821 39.59 165.041 40.0833 165.041 40.69C165.041 41.1567 164.901 41.5667 164.621 41.92C164.341 42.2667 163.958 42.5333 163.471 42.72C162.984 42.9133 162.444 43.01 161.851 43.01C161.231 43.01 160.674 42.9033 160.181 42.69C159.694 42.4767 159.304 42.1767 159.011 41.79C158.718 41.4033 158.554 40.9533 158.521 40.44H159.601C159.654 40.9333 159.888 41.3333 160.301 41.64C160.721 41.9467 161.261 42.1 161.921 42.1C162.314 42.1 162.668 42.0433 162.981 41.93C163.294 41.8167 163.538 41.6567 163.711 41.45C163.884 41.2433 163.971 41.01 163.971 40.75C163.971 40.4567 163.888 40.2133 163.721 40.02C163.554 39.8267 163.294 39.6633 162.941 39.53C162.594 39.39 162.114 39.2567 161.501 39.13C160.568 38.9367 159.878 38.6567 159.431 38.29C158.991 37.9233 158.771 37.4167 158.771 36.77C158.771 36.3367 158.901 35.96 159.161 35.64C159.428 35.3133 159.794 35.0633 160.261 34.89C160.728 34.7167 161.258 34.63 161.851 34.63ZM167.312 34.82V39.38C167.312 39.9133 167.408 40.3833 167.602 40.79C167.802 41.19 168.085 41.5033 168.452 41.73C168.825 41.95 169.262 42.06 169.762 42.06C170.262 42.06 170.695 41.95 171.062 41.73C171.428 41.5033 171.708 41.19 171.902 40.79C172.102 40.3833 172.202 39.9133 172.202 39.38V34.82H173.252V39.38C173.252 40.1067 173.108 40.7467 172.822 41.3C172.535 41.8467 172.128 42.27 171.602 42.57C171.075 42.87 170.462 43.02 169.762 43.02C169.062 43.02 168.445 42.87 167.912 42.57C167.385 42.27 166.978 41.8467 166.692 41.3C166.405 40.7467 166.262 40.1067 166.262 39.38V34.82H167.312ZM175.838 34.82L180.688 41.06V34.77H181.748V42.78H180.758L175.908 36.54V42.83H174.858V34.82H175.838ZM192.934 34.5H193.924V40.84H192.934V34.5ZM188.744 39.55C188.198 39.55 187.718 39.4433 187.304 39.23C186.898 39.0167 186.584 38.7233 186.364 38.35C186.144 37.97 186.034 37.5433 186.034 37.07C186.034 36.5967 186.144 36.1733 186.364 35.8C186.584 35.42 186.898 35.1233 187.304 34.91C187.718 34.6967 188.198 34.59 188.744 34.59C189.291 34.59 189.768 34.6967 190.174 34.91C190.581 35.1233 190.894 35.4167 191.114 35.79C191.334 36.1633 191.444 36.59 191.444 37.07C191.444 37.55 191.334 37.9767 191.114 38.35C190.894 38.7233 190.581 39.0167 190.174 39.23C189.768 39.4433 189.291 39.55 188.744 39.55ZM188.744 38.71C189.258 38.71 189.671 38.5633 189.984 38.27C190.298 37.97 190.454 37.57 190.454 37.07C190.454 36.57 190.294 36.17 189.974 35.87C189.661 35.57 189.251 35.42 188.744 35.42C188.231 35.42 187.814 35.57 187.494 35.87C187.181 36.17 187.024 36.57 187.024 37.07C187.024 37.57 187.181 37.97 187.494 38.27C187.814 38.5633 188.231 38.71 188.744 38.71ZM186.784 40.14H187.794V42.03H194.154V42.93H186.784V40.14ZM203.673 40.27H196.143V34.81H203.543V35.7H197.133V37.1H203.433V37.97H197.133V39.38H203.673V40.27ZM204.103 41.72V42.63H195.573V41.72H204.103ZM214.123 38.91H212.923V43.04H211.933V34.5H212.923V37.96H214.123V38.91ZM208.983 41.62C209.396 41.62 209.803 41.5833 210.203 41.51C210.609 41.4367 210.939 41.34 211.193 41.22V42.12C210.939 42.2467 210.609 42.3467 210.203 42.42C209.796 42.4933 209.383 42.53 208.963 42.53H205.593V38.15H209.323V35.72H205.573V34.81H210.313V39.06H206.573V41.62H208.983ZM223.022 40.42H222.082V34.5H223.022V40.42ZM220.022 36.8H217.772V35.95H220.022V34.55H220.952V39.51H220.022V36.8ZM219.352 38.84C218.818 39.04 218.002 39.14 216.902 39.14H215.072V34.67H216.022V38.3H217.002C218.022 38.3 218.805 38.2 219.352 38V38.84ZM223.042 43.04L219.272 41.43C218.812 41.91 218.242 42.28 217.562 42.54C216.888 42.8 216.185 42.93 215.452 42.93V42C216.018 42 216.562 41.9 217.082 41.7C217.608 41.5 218.055 41.2233 218.422 40.87C218.788 40.5167 219.035 40.1167 219.162 39.67L220.152 39.9C220.078 40.18 219.962 40.4567 219.802 40.73L223.412 42.17L223.042 43.04Z" fill="#643600"/>
<defs>
<clipPath id="clip0_23_148">
<rect width="36" height="36" fill="white" transform="translate(7 9)"/>
</clipPath>
</defs>
</svg>
