<svg width="683" height="683" viewBox="0 0 683 683" fill="none" xmlns="http://www.w3.org/2000/svg">
<g clip-path="url(#clip0_53_715)">
<path d="M329.614 244.308C360.582 253.308 387.119 271.313 406.244 293.781C406.259 293.781 406.275 293.792 406.275 293.807C409.796 297.917 413.233 302.349 416.15 306.552V306.563C418.926 310.5 422.436 316.135 424.218 319.401C424.228 319.417 424.244 319.432 424.244 319.443C430.114 329.844 435.025 341.427 438.551 353.667C438.561 353.667 438.551 353.677 438.551 353.677C454.218 408.37 440.103 468.817 397.9 511.02L286.473 622.437C223.999 684.921 122.703 684.921 60.2343 622.437C-2.25517 559.947 -2.24475 458.672 60.2343 396.193L171.645 284.766C192.255 264.172 217.067 250.36 243.333 243.344C239.718 256.891 237.906 270.834 237.906 284.766C237.906 299.672 239.973 314.563 244.119 329C238.437 332.349 233.078 336.453 228.213 341.333L116.786 452.75C85.604 483.942 85.604 534.687 116.786 565.88C147.984 597.062 198.723 597.062 229.921 565.88L341.332 454.453C372.53 423.26 372.525 372.526 341.332 341.333C315.015 315.016 310.895 274.781 328.999 244.12C329.202 244.172 329.416 244.24 329.614 244.308Z" fill="#EDD500"/>
<path d="M622.436 60.2351C559.962 -2.25438 458.665 -2.25438 396.192 60.2351L284.765 171.646C222.416 233.995 222.14 335.276 284.765 397.901C304.645 417.765 328.442 431.323 353.666 438.552C371.77 407.885 367.65 367.651 341.332 341.333C310.135 310.135 310.14 259.401 341.332 228.214L454.749 114.803L454.785 114.829C485.957 85.6829 535.306 86.2089 565.879 116.787C597.066 147.985 597.066 198.724 565.879 229.922L454.452 341.333C449.619 346.167 444.384 350.208 438.551 353.677C442.681 368.104 444.759 383.01 444.759 397.901C444.759 411.833 442.947 425.776 439.337 439.323C465.598 432.312 490.41 418.5 511.019 397.901L622.436 286.474C684.92 223.985 684.91 122.709 622.436 60.2351Z" fill="#008000"/>
<path d="M437.801 145.073C437.801 152.438 431.832 158.407 424.473 158.407C417.108 158.407 411.14 152.438 411.14 145.073C411.14 137.709 417.108 131.74 424.473 131.74C431.832 131.74 437.801 137.709 437.801 145.073Z" fill="#008000"/>
<path d="M181.072 181.073C186.281 175.87 186.281 167.428 181.072 162.219L124.51 105.657C119.302 100.454 110.864 100.454 105.656 105.657C100.453 110.865 100.453 119.308 105.656 124.516L162.218 181.079C167.432 186.282 175.869 186.282 181.072 181.073Z" fill="#008000"/>
<path d="M50.6977 224.016C43.3384 224.016 37.3696 229.985 37.3696 237.344C37.3696 244.709 43.3384 250.677 50.6977 250.677H130.692C138.052 250.677 144.02 244.709 144.02 237.344C144.02 229.985 138.052 224.016 130.692 224.016H50.6977Z" fill="#008000"/>
<path d="M224.015 46.7038V126.693C224.015 134.053 229.984 140.027 237.343 140.027C244.708 140.027 250.677 134.053 250.677 126.693V46.7038C250.677 39.3393 244.708 33.3705 237.343 33.3705C229.984 33.3705 224.015 39.3393 224.015 46.7038Z" fill="#008000"/>
<path d="M501.593 501.593C496.384 506.796 496.384 515.239 501.593 520.447L558.155 577.01C560.759 579.614 564.17 580.916 567.582 580.916C579.348 580.916 585.436 566.588 577.009 558.156L520.447 501.593C515.238 496.39 506.801 496.39 501.593 501.593Z" fill="#008000"/>
<path d="M457.322 635.968V555.973C457.322 548.614 451.348 542.645 443.989 542.645C436.624 542.645 430.655 548.614 430.655 555.973V635.968C430.655 643.327 436.624 649.296 443.989 649.296C451.348 649.296 457.322 643.327 457.322 635.968Z" fill="#008000"/>
<path d="M635.967 457.323C643.327 457.323 649.295 451.349 649.295 443.989C649.295 436.625 643.327 430.656 635.967 430.656H555.973C548.613 430.656 542.645 436.625 542.645 443.989C542.645 451.349 548.613 457.323 555.973 457.323H635.967Z" fill="#008000"/>
</g>
<defs>
<clipPath id="clip0_53_715">
<rect width="682.667" height="682.667" fill="white"/>
</clipPath>
</defs>
</svg>
